<svg width="88" height="86" viewBox="0 0 88 86" fill="none" xmlns="http://www.w3.org/2000/svg">
<path d="M58.1192 57.2553L59.859 75.1531L12.235 79.7237L6.31992 19.0048L33.2124 16.425C35.9753 13.9873 39.2296 11.611 43.0978 9.35542L3.7012 13.1343C1.45016 13.3581 -0.18759 15.3286 0.017305 17.5629L6.32098 82.3231C6.52587 84.4153 8.30607 86 10.3934 86C10.5161 86 10.6593 86 10.782 85.9796L62.5003 81.0233C64.7514 80.7995 66.3891 78.829 66.1842 76.5947L63.995 54.1681C62.0913 55.3054 60.1472 56.3412 58.1211 57.2553L58.1192 57.2553ZM87.0167 0.0100789C75.3716 1.59484 66.0396 3.84959 57.9964 6.91705C57.7305 7.01839 57.4639 7.24216 57.4639 7.52646C58.1396 9.98451 56.3175 12.9303 53.4525 15.1238C53.3299 15.2864 53.1044 15.185 53.125 15.0021C53.1455 14.7987 53.8616 12.0359 53.4525 10.0254C53.2887 9.23301 52.7364 9.03033 52.2246 9.25341C14.4857 26.2355 24.0217 54.2685 24.0217 54.2685C24.0628 54.2889 24.1238 54.2889 24.1649 54.2889C38.6553 26.1547 74.5518 3.66717 75.7798 8.07413C75.8819 8.44006 75.7798 8.8053 75.5544 9.0896C71.8294 11.6694 46.7779 26.7836 27.6427 55.8929C24.2452 61.0526 22.6492 63.0229 21.3597 69.0763C21.0116 70.7421 22.6692 72.1031 24.1021 70.8236C26.865 68.3656 30.4468 63.6323 34.5603 58.1068C58.239 59.6916 78.1934 38.3808 77.1918 35.6802C76.7621 34.5022 67.4701 33.1616 66.1401 33.1005C65.9557 33.0801 65.8948 32.857 66.0784 32.755C71.3788 30.1752 75.2471 29.8705 79.7704 30.5003C80.0979 30.5411 80.4049 30.2969 80.5481 29.9922C80.9984 29.0373 82.2469 26.0923 83.1062 23.7354C83.2494 23.3294 83.0651 22.8825 82.6765 22.6791C79.2996 20.9522 74.7763 19.7947 72.9754 19.632C72.7911 19.6116 72.75 19.3681 72.9343 19.2865C78.1737 17.1332 80.0156 17.0726 84.1909 17.9255C84.6 18.0065 84.9892 17.7018 85.1119 17.2957C87.1792 9.63724 87.8337 3.03568 87.9974 0.882168C88.0392 0.375445 87.5684 -0.0714145 87.0161 0.00953361L87.0167 0.0100789Z" fill="#0C3D35"/>
</svg>
