<?xml version="1.0" encoding="UTF-8"?>
<svg data-bbox="0 3.835 66.824 59.154" viewBox="0 0 66.824 66.824" height="66.824" width="66.824" xmlns="http://www.w3.org/2000/svg" data-type="shape">
    <g>
        <path d="M65.66 12.408H33.755v-.002L5.726 3.887a1.155 1.155 0 0 0-1.035.178 1.17 1.17 0 0 0-.472.936v7.407H1.168c-.642 0-1.168.526-1.168 1.168v41.286a1.17 1.17 0 0 0 1.168 1.168h24.216v4.624h-4.429v2.335h24.912v-2.335H41.44V56.03h24.216c.641 0 1.168-.524 1.168-1.168V13.576a1.16 1.16 0 0 0-1.164-1.168zm-59.108 0v-5.83l19.179 5.831 3.845 1.168 2.672.813v38.844L6.555 45.423V13.576l-.003-1.168zm57.94 41.288h-29.91V14.744h4.588v4.333l2.274-1.438 2.274 1.438v-4.333h20.78v38.95h-.007v.002zM28.288 21.885l-9.101-2.77v-1.538l9.101 2.774v1.534zm0 5.864-9.101-2.771v-1.542l9.101 2.772v1.541zm0 5.911-18.209-5.539v-1.534l18.209 5.536v1.537zm0 5.858-18.209-5.535v-1.54l18.209 5.535v1.54zm0 5.917-18.209-5.538v-1.538l18.209 5.534v1.542zm-16.651-22.3.472-1.546 2.743.832.488 1.838.798.243.807.243-2.558-9.089-.876-.264-.876-.264-2.556 7.533.786.241.772.233zm1.855-5.893.953 3.627-1.915-.582.962-3.045zm37.177 27.987h-1.136v-4.85h1.168c-.022 1.604.039 3.295-.032 4.85zm3.005-5.96c.853 1.342 1.599 2.792 2.427 4.147-.324.178-.646.352-.946.552-.896-1.312-1.625-2.775-2.489-4.119.291-.238.697-.359 1.008-.58zm-7.154 0c.343.16.625.381.986.527-.753 1.424-1.588 2.773-2.368 4.174-.369-.13-.647-.351-.977-.524.683-1.499 1.588-2.767 2.359-4.177zm12.837.921c-1.391-.789-2.828-1.528-4.179-2.367.169-.375.338-.744.552-1.075 1.374.828 2.783 1.62 4.143 2.462-.139.355-.36.636-.516.98zm-19.069-1.012c1.433-.782 2.814-1.605 4.206-2.42.16.362.365.68.557 1.013-1.3.896-2.787 1.594-4.146 2.427-.216-.336-.441-.646-.617-1.02zm10.133-.272c1.979-.142 3.472-1.438 4.083-3.043.721-1.883.036-4.002-1.255-5.156-.27-.235-.757-.406-.862-.736-.142-.446-.027-1.067-.027-1.598v-1.659c-1.25-.408-3.243-.406-4.484 0v1.659c0 .541.128 1.236-.036 1.658-.064.178-.306.292-.457.4a4.686 4.686 0 0 0-1.966 3.841c.015 2.67 2.216 4.826 5.004 4.634zm-2.638-7.342c.306-.254.722-.401.981-.798.347-.535.273-1.283.273-2.21.611-.185 1.496-.136 2.149-.032-.046 1.018-.019 1.966.433 2.482.227.26.652.416.954.677.723.634 1.136 1.678 1.072 2.736a3.518 3.518 0 0 1-3.226 3.311 3.553 3.553 0 0 1-2.856-1.072 3.543 3.543 0 0 1-.98-2.393c-.001-1.263.539-2.152 1.2-2.701z"/>
    </g>
</svg>
