<svg width="94" height="96" viewBox="0 0 94 96" fill="none" xmlns="http://www.w3.org/2000/svg">
<path d="M43.7119 64.9674L49.0732 44.2917C49.6688 42.0447 51.4762 38.8776 53.1408 37.2434L66.1846 24.2912C67.8278 22.657 67.8484 19.9804 66.1846 18.3258L48.9915 1.22562C47.3277 -0.408539 44.6571 -0.408539 43.014 1.22562L29.9702 14.1779C28.3271 15.812 25.1426 17.6302 22.8832 18.2027L2.07497 23.5559C-0.184396 24.1483 -0.677575 25.9458 0.986207 27.5807L39.6659 66.0496C41.309 67.7036 43.1371 67.2138 43.712 64.9661L43.7119 64.9674ZM16.1037 33.7097L10.3312 27.9686L24.4431 24.3322C27.7913 23.4744 32.0026 21.0836 34.4468 18.6525L45.9912 7.17106L51.7837 12.9319L40.3829 24.291C37.8973 26.7631 33.6041 29.2147 30.1735 30.0725L16.1037 33.7097ZM13.1043 54.0175C15.9594 56.857 20.0682 57.6333 23.6625 56.4486L10.6592 43.4964C9.44803 47.0711 10.2493 51.1569 13.1043 54.0175ZM90.5464 69.3399C95.1477 64.7637 95.1477 57.3885 90.5671 52.8122C87.3421 49.6049 82.6994 48.6855 78.6121 50.0132L63.7401 35.2223L56.2426 42.679L71.1145 57.4699C70.3339 59.8196 70.3339 62.3526 71.1145 64.7022L57.7626 77.961C56.8382 77.8795 55.9138 77.818 54.9688 77.818C42.4587 77.818 31.7149 85.2952 26.9698 96H82.9679C80.1948 89.7281 75.3466 84.58 69.2873 81.3719L78.5723 72.1168C82.679 73.4664 87.3009 72.5676 90.5466 69.3397L90.5464 69.3399ZM78.3451 57.2044C80.502 55.0593 83.9939 55.0388 86.1508 57.1839C88.3077 59.329 88.3077 62.8019 86.1508 64.947C83.9939 67.0922 80.502 67.1126 78.3245 64.947C76.1676 62.8224 76.1676 59.3496 78.3451 57.2044Z" fill="#0C3D35"/>
</svg>
