<svg width="84" height="84" viewBox="0 0 84 84" fill="none" xmlns="http://www.w3.org/2000/svg">
<path d="M17.1851 40.8429L21.4672 36.562L6.94083 22.04C5.75266 20.8522 5.75266 18.9265 6.94083 17.7591L17.7386 6.96454C18.3121 6.39121 19.0702 6.08397 19.89 6.08397C20.7097 6.08397 21.4678 6.39121 22.0413 6.96454L23.578 8.52133L15.0748 17.0425L17.021 18.9676L25.5242 10.467L29.1504 14.0722L25.8108 17.4108L27.7364 19.3565L31.076 15.9973L34.7022 19.6026L31.3421 22.9412L33.2272 24.8257L40.8694 17.1858L26.3232 2.66301C24.602 0.942305 22.3279 0 19.8898 0C17.4517 0 15.1776 0.942305 13.4563 2.66301L2.65853 13.437C-0.886175 16.9807 -0.886175 22.7565 2.65853 26.3207L17.1851 40.8429ZM81.3371 57.6596L66.8107 43.1376L59.1685 50.7775L61.033 52.6415L64.3726 49.3029L67.9988 52.9281L64.6592 56.2667L66.5849 58.1917L69.9244 54.8532L73.5506 58.4783L65.0475 66.9994L66.9937 68.9245L75.4968 60.4239L77.0335 61.9807C77.607 62.554 77.9144 63.3119 77.9144 64.1314C77.9144 64.951 77.607 65.7088 77.0335 66.2821L66.2563 77.0561C65.1086 78.2035 63.1013 78.2035 61.9742 77.0561L47.4478 62.5341L43.1657 66.8149L57.692 81.337C59.4132 83.0577 61.6874 84 64.1255 84C66.5636 84 68.8377 83.0577 70.559 81.337L81.3362 70.5424C83.0574 68.8217 84 66.5483 84 64.1109C84.0007 61.6742 83.0581 59.3802 81.3369 57.6595L81.3371 57.6596ZM82.4436 21.261C82.4642 21.2404 82.4848 21.2404 82.5054 21.2198C84.8824 18.8641 82.3826 12.5149 76.9115 7.06613C71.4612 1.6174 65.1101 -0.881098 62.7331 1.47396C62.7125 1.49454 62.7125 1.53568 62.6919 1.55557C62.6713 1.57615 62.6302 1.59672 62.6103 1.61729C47.1208 17.1234 18.7423 45.4916 3.23335 60.9977C2.43414 61.7966 1.79889 63.3329 1.79889 64.459V80.1687C1.79889 81.275 2.70031 82.1967 3.82747 82.1967H19.5214C20.6279 82.1967 22.1851 81.5617 22.9638 80.7627C38.4738 65.2573 66.8511 36.8884 82.3601 21.3841C82.4225 21.3436 82.4225 21.3031 82.4431 21.262L82.4436 21.261ZM17.8824 75.6026H10.4042C9.27706 75.6026 8.37561 74.7014 8.37561 73.5746V66.0986C8.37561 64.9924 9.21598 64.419 10.1991 64.9512C13.9489 66.9587 17.0222 70.0311 19.0301 73.7796C19.5624 74.7631 19.0095 75.6026 17.8824 75.6026Z" fill="#0C3D35"/>
</svg>
