<svg width="32" height="35" viewBox="0 0 32 35" fill="none" xmlns="http://www.w3.org/2000/svg">
<g clip-path="url(#clip0_413_524)" filter="url(#filter0_d_413_524)">
<path d="M27.25 20.525V24.945C27.2501 25.2615 27.1302 25.5662 26.9145 25.7977C26.6987 26.0293 26.4032 26.1703 26.0875 26.1925C25.5413 26.23 25.095 26.25 24.75 26.25C13.7038 26.25 4.75 17.2963 4.75 6.25C4.75 5.905 4.76875 5.45875 4.8075 4.9125C4.82965 4.59681 4.97073 4.30126 5.20225 4.08551C5.43378 3.86976 5.73853 3.74986 6.055 3.75H10.475C10.63 3.74984 10.7796 3.80732 10.8947 3.91128C11.0097 4.01523 11.082 4.15823 11.0975 4.3125C11.1263 4.6 11.1525 4.82875 11.1775 5.0025C11.4259 6.73615 11.935 8.42229 12.6875 10.0038C12.8063 10.2538 12.7288 10.5525 12.5037 10.7125L9.80625 12.64C11.4556 16.4831 14.5182 19.5457 18.3612 21.195L20.2863 18.5025C20.3649 18.3925 20.4797 18.3136 20.6106 18.2796C20.7415 18.2455 20.8802 18.2585 21.0025 18.3162C22.5838 19.0673 24.2695 19.5751 26.0025 19.8225C26.1763 19.8475 26.405 19.875 26.69 19.9025C26.844 19.9183 26.9867 19.9907 27.0904 20.1057C27.1941 20.2207 27.2502 20.3701 27.25 20.525Z" fill="#69A573"/>
<path d="M20.2985 4C20.5746 4 20.7985 4.22386 20.7985 4.5V10.5C20.7985 10.7761 20.5746 11 20.2985 11H19.5C19.2239 11 19 10.7761 19 10.5V4.5C19 4.22386 19.2239 4 19.5 4H20.2985Z" fill="#69A573"/>
<path d="M22.0233 11C21.7471 11 21.5233 10.7761 21.5233 10.5V4.5C21.5233 4.22386 21.7471 4 22.0233 4H22.8217C23.0979 4 23.3217 4.22386 23.3217 4.5V8.96875C23.3217 9.24489 23.5456 9.46875 23.8217 9.46875H25.5C25.7761 9.46875 26 9.69261 26 9.96875V10.5C26 10.7761 25.7761 11 25.5 11H22.0233Z" fill="#69A573"/>
</g>
<defs>
<filter id="filter0_d_413_524" x="-3" y="0" width="38" height="38" filterUnits="userSpaceOnUse" color-interpolation-filters="sRGB">
<feFlood flood-opacity="0" result="BackgroundImageFix"/>
<feColorMatrix in="SourceAlpha" type="matrix" values="0 0 0 0 0 0 0 0 0 0 0 0 0 0 0 0 0 0 127 0" result="hardAlpha"/>
<feOffset dy="4"/>
<feGaussianBlur stdDeviation="2"/>
<feComposite in2="hardAlpha" operator="out"/>
<feColorMatrix type="matrix" values="0 0 0 0 0 0 0 0 0 0 0 0 0 0 0 0 0 0 0.25 0"/>
<feBlend mode="normal" in2="BackgroundImageFix" result="effect1_dropShadow_413_524"/>
<feBlend mode="normal" in="SourceGraphic" in2="effect1_dropShadow_413_524" result="shape"/>
</filter>
<clipPath id="clip0_413_524">
<rect width="30" height="30" fill="white" transform="translate(1)"/>
</clipPath>
</defs>
</svg>
