<svg width="30" height="30" viewBox="0 0 30 30" fill="none" xmlns="http://www.w3.org/2000/svg">
<g clip-path="url(#clip0_224_481)">
<path d="M3.75 3.75H26.25C26.5815 3.75 26.8995 3.8817 27.1339 4.11612C27.3683 4.35054 27.5 4.66848 27.5 5V25C27.5 25.3315 27.3683 25.6495 27.1339 25.8839C26.8995 26.1183 26.5815 26.25 26.25 26.25H3.75C3.41848 26.25 3.10054 26.1183 2.86612 25.8839C2.6317 25.6495 2.5 25.3315 2.5 25V5C2.5 4.66848 2.6317 4.35054 2.86612 4.11612C3.10054 3.8817 3.41848 3.75 3.75 3.75ZM15.7232 14.0429C15.3502 14.3656 14.7976 14.3682 14.4216 14.0489L7.822 8.44458C7.40112 8.08717 6.77022 8.13853 6.41267 8.5593L6.08902 8.94018C5.73131 9.36115 5.78271 9.99243 6.20382 10.35L14.4378 17.3414C14.8138 17.6607 15.3665 17.6581 15.7394 17.3354L23.8117 10.3503C24.2292 9.98903 24.2749 9.35777 23.9138 8.94011L23.5868 8.56182C23.2255 8.14389 22.5937 8.09812 22.176 8.4596L15.7232 14.0429Z" fill="#69A573"/>
</g>
<defs>
<clipPath id="clip0_224_481">
<rect width="30" height="30" fill="white"/>
</clipPath>
</defs>
</svg>
