<svg width="30" height="30" viewBox="0 0 30 30" fill="none" xmlns="http://www.w3.org/2000/svg">
<g clip-path="url(#clip0_269_378)">
<path d="M4.72875 3.5325L15 1.25L25.2712 3.5325C25.5488 3.5942 25.7971 3.74871 25.975 3.97051C26.153 4.19231 26.25 4.46815 26.25 4.7525V17.2362C26.2499 18.4709 25.945 19.6865 25.3624 20.775C24.7797 21.8636 23.9373 22.7914 22.91 23.4763L15 28.75L7.09 23.4763C6.06284 22.7915 5.22058 21.8639 4.63794 20.7756C4.05529 19.6873 3.7503 18.472 3.75 17.2375V4.7525C3.75005 4.46815 3.84705 4.19231 4.02499 3.97051C4.20293 3.74871 4.45117 3.5942 4.72875 3.5325ZM15 13.75C15.8288 13.75 16.6237 13.4208 17.2097 12.8347C17.7958 12.2487 18.125 11.4538 18.125 10.625C18.125 9.7962 17.7958 9.00134 17.2097 8.41529C16.6237 7.82924 15.8288 7.5 15 7.5C14.1712 7.5 13.3763 7.82924 12.7903 8.41529C12.2042 9.00134 11.875 9.7962 11.875 10.625C11.875 11.4538 12.2042 12.2487 12.7903 12.8347C13.3763 13.4208 14.1712 13.75 15 13.75ZM9.40875 20H20.5912C20.4397 18.623 19.7854 17.3503 18.7537 16.4259C17.7219 15.5015 16.3853 14.9903 15 14.9903C13.6147 14.9903 12.2781 15.5015 11.2463 16.4259C10.2146 17.3503 9.56028 18.623 9.40875 20Z" fill="#69A573"/>
</g>
<defs>
<clipPath id="clip0_269_378">
<rect width="30" height="30" fill="white"/>
</clipPath>
</defs>
</svg>
