<svg width="30" height="30" viewBox="0 0 30 30" fill="none" xmlns="http://www.w3.org/2000/svg">
<g clip-path="url(#clip0_269_371)">
<path d="M12.4426 2.7624C14.1287 2.40882 15.8698 2.40797 17.5563 2.7599C17.6687 3.50151 17.9467 4.20826 18.3698 4.82763C18.7929 5.44699 19.3501 5.96303 20.0001 6.3374C20.6495 6.71307 21.3753 6.93748 22.1234 6.99397C22.8716 7.05045 23.6228 6.93755 24.3213 6.66365C25.4692 7.94873 26.3386 9.45745 26.8751 11.0949C26.2892 11.5631 25.8165 12.1573 25.4918 12.8334C25.1672 13.5094 24.9991 14.25 25.0001 14.9999C25.0001 16.5799 25.7326 17.9887 26.8776 18.9049C26.338 20.541 25.4674 22.0485 24.3201 23.3337C23.6217 23.06 22.8707 22.9472 22.1228 23.0036C21.3749 23.0601 20.6493 23.2844 20.0001 23.6599C19.3506 24.0342 18.7938 24.5499 18.371 25.1688C17.9481 25.7877 17.6701 26.4939 17.5576 27.2349C15.8716 27.5893 14.1305 27.591 12.4438 27.2399C12.332 26.4976 12.0542 25.7901 11.6311 25.1701C11.208 24.55 10.6505 24.0334 10.0001 23.6587C9.35051 23.2832 8.62468 23.059 7.87654 23.0027C7.1284 22.9465 6.37721 23.0596 5.67881 23.3337C4.53081 22.0482 3.66131 20.539 3.12506 18.9012C3.71055 18.4332 4.18313 17.8394 4.50773 17.1638C4.83232 16.4882 5.0006 15.7482 5.00006 14.9987C5.00067 14.2485 4.83219 13.5079 4.50714 12.8318C4.18209 12.1557 3.70884 11.5616 3.12256 11.0937C3.66214 9.45756 4.53271 7.95003 5.68006 6.6649C6.37837 6.9386 7.12939 7.0514 7.8773 6.99492C8.62521 6.93843 9.35077 6.71412 10.0001 6.33865C10.6495 5.9644 11.2063 5.44868 11.6291 4.82979C12.052 4.21089 12.33 3.50345 12.4426 2.7624ZM15.0001 18.7499C15.9946 18.7499 16.9484 18.3548 17.6517 17.6516C18.355 16.9483 18.7501 15.9945 18.7501 14.9999C18.7501 14.0053 18.355 13.0515 17.6517 12.3483C16.9484 11.645 15.9946 11.2499 15.0001 11.2499C14.0055 11.2499 13.0517 11.645 12.3484 12.3483C11.6451 13.0515 11.2501 14.0053 11.2501 14.9999C11.2501 15.9945 11.6451 16.9483 12.3484 17.6516C13.0517 18.3548 14.0055 18.7499 15.0001 18.7499Z" fill="#69A573"/>
</g>
<defs>
<clipPath id="clip0_269_371">
<rect width="30" height="30" fill="white"/>
</clipPath>
</defs>
</svg>
