<svg width="30" height="30" viewBox="0 0 30 30" fill="none" xmlns="http://www.w3.org/2000/svg">
    <g clip-path="url(#clip0_413_529)">
        <path d="M26.25 20.525V24.945C26.2501 25.2615 26.1302 25.5662 25.9145 25.7977C25.6987 26.0293 25.4032 26.1703 25.0875 26.1925C24.5413 26.23 24.095 26.25 23.75 26.25C12.7038 26.25 3.75 17.2963 3.75 6.25C3.75 5.905 3.76875 5.45875 3.8075 4.9125C3.82965 4.59681 3.97073 4.30126 4.20225 4.08551C4.43378 3.86976 4.73853 3.74986 5.055 3.75H9.475C9.63005 3.74984 9.77962 3.80732 9.89466 3.91128C10.0097 4.01523 10.082 4.15823 10.0975 4.3125C10.1263 4.6 10.1525 4.82875 10.1775 5.0025C10.4259 6.73615 10.935 8.42229 11.6875 10.0038C11.8063 10.2538 11.7288 10.5525 11.5037 10.7125L8.80625 12.64C10.4556 16.4831 13.5182 19.5457 17.3612 21.195L19.2863 18.5025C19.3649 18.3925 19.4797 18.3136 19.6106 18.2796C19.7415 18.2455 19.8802 18.2585 20.0025 18.3162C21.5838 19.0673 23.2695 19.5751 25.0025 19.8225C25.1763 19.8475 25.405 19.875 25.69 19.9025C25.844 19.9183 25.9867 19.9907 26.0904 20.1057C26.1941 20.2207 26.2502 20.3701 26.25 20.525Z"
              fill="#69A573"/>
    </g>
    <path d="M18.3143 3.58C18.3143 3.30386 18.5382 3.08 18.8143 3.08H19.3348C19.6109 3.08 19.8348 3.30386 19.8348 3.58V6.82857C19.8348 7.27429 19.7327 7.66 19.5285 7.98571C19.3262 8.30952 19.0436 8.56 18.6808 8.73714C18.318 8.91238 17.8969 9 17.4174 9C16.9343 9 16.5113 8.91238 16.1485 8.73714C15.7857 8.56 15.5032 8.30952 15.3008 7.98571C15.1003 7.66 15 7.27429 15 6.82857V3.58C15 3.30386 15.2239 3.08 15.5 3.08H16.0204C16.2966 3.08 16.5204 3.30386 16.5204 3.58V6.69143C16.5204 6.87238 16.5587 7.03429 16.6353 7.17714C16.7119 7.3181 16.8176 7.42857 16.9525 7.50857C17.0892 7.58857 17.2442 7.62857 17.4174 7.62857C17.5924 7.62857 17.7474 7.58857 17.8823 7.50857C18.0172 7.42857 18.1229 7.3181 18.1995 7.17714C18.2761 7.03429 18.3143 6.87238 18.3143 6.69143V3.58Z"
          fill="#69A573"/>
    <path d="M23.9318 4.90857C23.6705 4.90857 23.4775 4.67595 23.2932 4.49066C23.2837 4.48109 23.2738 4.47183 23.2635 4.46286C23.1432 4.35619 22.96 4.30286 22.7139 4.30286C22.5571 4.30286 22.4286 4.32286 22.3283 4.36286C22.2298 4.40095 22.1569 4.45333 22.1095 4.52C22.0621 4.58667 22.0375 4.66286 22.0357 4.74857C22.032 4.81905 22.0439 4.88286 22.0712 4.94C22.1004 4.99524 22.146 5.04571 22.208 5.09143C22.2699 5.13524 22.3492 5.17524 22.4459 5.21143C22.5425 5.24762 22.6573 5.28 22.7904 5.30857L23.2498 5.41143C23.5598 5.48 23.825 5.57048 24.0456 5.68286C24.2662 5.79524 24.4467 5.92762 24.5871 6.08C24.7274 6.23048 24.8305 6.4 24.8961 6.58857C24.9635 6.77714 24.9982 6.98286 25 7.20571C24.9982 7.59048 24.9061 7.91619 24.7238 8.18286C24.5415 8.44952 24.2808 8.65238 23.9417 8.79143C23.6044 8.93048 23.1988 9 22.7248 9C22.238 9 21.8133 8.92476 21.4505 8.77429C21.0895 8.62381 20.8088 8.39238 20.6082 8.08C20.4818 7.88009 20.3952 7.64474 20.3485 7.37393C20.3014 7.1011 20.5324 6.87429 20.8093 6.87429H21.2767C21.5426 6.87429 21.7384 7.10055 21.8798 7.32571C21.9564 7.44762 22.0639 7.54 22.2025 7.60286C22.3429 7.66571 22.5097 7.69714 22.7029 7.69714C22.8652 7.69714 23.001 7.67619 23.1104 7.63429C23.2198 7.59238 23.3027 7.53429 23.3592 7.46C23.4157 7.38571 23.4449 7.30095 23.4467 7.20571C23.4449 7.11619 23.4167 7.0381 23.362 6.97143C23.3091 6.90286 23.2216 6.8419 23.0994 6.78857C22.9773 6.73333 22.8123 6.6819 22.6045 6.63429L22.0466 6.50857C21.5507 6.39619 21.1597 6.20857 20.8735 5.94571C20.5891 5.68095 20.4478 5.32 20.4496 4.86286C20.4478 4.49143 20.5426 4.16667 20.734 3.88857C20.9273 3.60857 21.1943 3.39048 21.5352 3.23429C21.878 3.0781 22.2709 3 22.7139 3C23.166 3 23.557 3.07905 23.887 3.23714C24.217 3.39524 24.4713 3.6181 24.65 3.90571C24.7474 4.05995 24.8188 4.22834 24.8642 4.41088C24.931 4.67977 24.6981 4.90857 24.421 4.90857H23.9318Z"
          fill="#69A573"/>
    <defs>
        <clipPath id="clip0_413_529">
            <rect width="30" height="30" fill="white"/>
        </clipPath>
    </defs>
</svg>
