<svg width="30" height="30" viewBox="0 0 30 30" fill="none" xmlns="http://www.w3.org/2000/svg">
<g clip-path="url(#clip0_224_478)">
<path d="M3.34874 27.2698C2.97559 27.3716 2.6331 27.0293 2.73467 26.6561L4.13999 21.4922C4.17519 21.3629 4.15654 21.225 4.09095 21.1081C3.04502 19.2437 2.4965 17.1401 2.50002 15C2.50002 8.09625 8.09627 2.5 15 2.5C21.9038 2.5 27.5 8.09625 27.5 15C27.5 21.9038 21.9038 27.5 15 27.5C12.8609 27.5035 10.7583 26.9554 8.89456 25.9104C8.77756 25.8447 8.63962 25.8261 8.51021 25.8615L3.34874 27.2698ZM10.4888 9.135C10.3273 9.14502 10.1696 9.18754 10.025 9.26C9.88942 9.33679 9.76564 9.43278 9.65752 9.545C9.50752 9.68625 9.42252 9.80875 9.33127 9.9275C8.86928 10.5287 8.62078 11.2668 8.62502 12.025C8.62752 12.6375 8.78752 13.2338 9.03752 13.7913C9.54877 14.9188 10.39 16.1125 11.5013 17.2188C11.7688 17.485 12.03 17.7525 12.3113 18.0013C13.6905 19.2156 15.3341 20.0913 17.1113 20.5588L17.8225 20.6675C18.0538 20.68 18.285 20.6625 18.5175 20.6513C18.8816 20.6325 19.237 20.5339 19.5588 20.3625C19.7652 20.2531 19.8627 20.1981 20.0348 20.0892C20.0366 20.0881 20.0384 20.0869 20.0402 20.0857C20.0521 20.0778 20.1044 20.0425 20.1938 19.975C20.3625 19.85 20.4663 19.7613 20.6063 19.615C20.71 19.5075 20.8 19.3813 20.8688 19.2375C20.9663 19.0338 21.0638 18.645 21.1038 18.3212C21.1338 18.0737 21.125 17.9388 21.1213 17.855C21.1163 17.7213 21.005 17.5825 20.8838 17.5238L20.1587 17.1986C20.1571 17.1979 20.156 17.1974 20.1543 17.1967C20.1033 17.1744 19.0525 16.7164 18.405 16.4213C18.335 16.3907 18.26 16.3734 18.1838 16.37C18.0982 16.3612 18.0118 16.3708 17.9303 16.3982C17.8494 16.4254 17.7751 16.4695 17.7125 16.5276C17.7121 16.528 17.7113 16.5277 17.7113 16.527V16.527C17.7113 16.5266 17.711 16.5263 17.7106 16.5264C17.6998 16.5309 17.5966 16.6273 16.7175 17.6925C16.6656 17.7622 16.5942 17.8149 16.5123 17.8438C16.4303 17.8728 16.3417 17.8767 16.2575 17.855C16.1761 17.8332 16.0963 17.8057 16.0188 17.7725C15.8638 17.7075 15.81 17.6825 15.7038 17.6363L15.6975 17.6338C14.9824 17.3215 14.3203 16.8998 13.735 16.3838C13.5775 16.2463 13.4313 16.0963 13.2813 15.9513C12.7895 15.4803 12.3609 14.9475 12.0063 14.3663L11.9325 14.2475C11.8795 14.1677 11.8367 14.0816 11.805 13.9913C11.7641 13.833 11.8502 13.7017 11.8749 13.6683C11.8791 13.6626 11.8836 13.6575 11.8883 13.6523C11.9345 13.6015 12.1977 13.3113 12.3263 13.1475C12.4439 12.9979 12.5536 12.8423 12.655 12.6813C12.8025 12.4438 12.8488 12.2 12.7713 12.0113C12.4213 11.1563 12.0588 10.305 11.6863 9.46C11.6125 9.2925 11.3938 9.1725 11.195 9.14875C11.1275 9.14125 11.06 9.13375 10.9925 9.12875C10.8246 9.12041 10.6564 9.12333 10.4888 9.135Z" fill="#69A573"/>
</g>
<defs>
<clipPath id="clip0_224_478">
<rect width="30" height="30" fill="white"/>
</clipPath>
</defs>
</svg>
